<?xml version="1.0" encoding="UTF-8" standalone="no"?>
<svg width="19px" height="20px" viewBox="0 0 19 20" version="1.1" xmlns="http://www.w3.org/2000/svg" xmlns:xlink="http://www.w3.org/1999/xlink">
    <!-- Generator: Sketch 39.1 (31720) - http://www.bohemiancoding.com/sketch -->
    <title>Combined Shape</title>
    <desc>Created with Sketch.</desc>
    <defs></defs>
    <g id="Page-1" stroke="none" stroke-width="1" fill="none" fill-rule="evenodd">
        <g id="01" transform="translate(-972.000000, -239.000000)" fill="#4A4A4A">
            <g id="Quit_button" transform="translate(972.000000, 239.000000)">
                <path d="M9.55891168,11.1009631 L17.5896705,19.2059896 C17.7364173,19.3540953 17.9289059,19.4282525 18.1211876,19.4282525 C18.3134693,19.4282525 18.505958,19.3543042 18.6529117,19.2059896 C18.9466122,18.9099873 18.9466122,18.429114 18.6529117,18.1331116 L10.6220494,10.0279806 L18.6527048,1.92296054 C18.9464052,1.62695817 18.9464052,1.14608487 18.6527048,0.8500825 C18.3590043,0.55366234 17.883164,0.55366234 17.5894635,0.8500825 L9.55895379,8.95505359 L1.52824991,0.8500825 C1.23454945,0.55366234 0.758709165,0.55366234 0.465008703,0.8500825 C0.171308241,1.14608487 0.171308241,1.62695817 0.465008703,1.92296054 L8.4958225,10.0280426 L0.465008703,18.1333205 C0.171308241,18.4293229 0.171308241,18.9101962 0.465008703,19.2061985 C0.611755446,19.3543042 0.804244121,19.4284614 0.996525818,19.4284614 C1.18880752,19.4284614 1.38129619,19.3545131 1.52804293,19.2061985 L9.55891168,11.1009631 Z" id="Combined-Shape"></path>
            </g>
        </g>
    </g>
</svg>